<mxfile host="Electron" modified="2024-04-25T10:19:55.845Z" agent="Mozilla/5.0 (X11; Linux x86_64) AppleWebKit/537.36 (KHTML, like Gecko) draw.io/24.2.5 Chrome/120.0.6099.109 Electron/28.1.0 Safari/537.36" etag="jYR8VHYkC-jZaKObR8PE" version="24.2.5" type="device">
  <diagram name="Page-1" id="DyquLoCqnv8UFfpNbI6D">
    <mxGraphModel dx="750" dy="1061" grid="1" gridSize="10" guides="1" tooltips="1" connect="1" arrows="1" fold="1" page="1" pageScale="1" pageWidth="1220" pageHeight="790" math="0" shadow="0">
      <root>
        <mxCell id="0" />
        <mxCell id="1" parent="0" />
        <mxCell id="2W-PBRkv51gdTkOP3Wb2-12" value="store_mgr" style="swimlane;fontStyle=1;align=center;verticalAlign=top;childLayout=stackLayout;horizontal=1;startSize=30;horizontalStack=0;resizeParent=1;resizeParentMax=0;resizeLast=0;collapsible=0;marginBottom=0;whiteSpace=wrap;html=1;fontSize=14;fontFamily=Courier New;" parent="1" vertex="1">
          <mxGeometry x="120" y="39" width="320" height="460" as="geometry" />
        </mxCell>
        <mxCell id="2W-PBRkv51gdTkOP3Wb2-13" value="* SM_FileHandle: { Char, Int, Int, Void }" style="text;strokeColor=none;fillColor=none;align=left;verticalAlign=middle;spacingLeft=4;spacingRight=4;overflow=hidden;rotatable=0;points=[[0,0.5],[1,0.5]];portConstraint=eastwest;whiteSpace=wrap;html=1;fontSize=10;fontFamily=Courier New;" parent="2W-PBRkv51gdTkOP3Wb2-12" vertex="1">
          <mxGeometry y="30" width="320" height="20" as="geometry" />
        </mxCell>
        <mxCell id="2W-PBRkv51gdTkOP3Wb2-26" value="* SM_PageHandle: Char" style="text;strokeColor=none;fillColor=none;align=left;verticalAlign=middle;spacingLeft=4;spacingRight=4;overflow=hidden;rotatable=0;points=[[0,0.5],[1,0.5]];portConstraint=eastwest;whiteSpace=wrap;html=1;fontSize=10;fontFamily=Courier New;" parent="2W-PBRkv51gdTkOP3Wb2-12" vertex="1">
          <mxGeometry y="50" width="320" height="20" as="geometry" />
        </mxCell>
        <mxCell id="2W-PBRkv51gdTkOP3Wb2-25" value="" style="line;strokeWidth=1;fillColor=none;align=left;verticalAlign=middle;spacingTop=0;spacingLeft=0;spacingRight=0;rotatable=0;labelPosition=right;points=[];portConstraint=eastwest;strokeColor=inherit;spacing=0;fontSize=10;fontFamily=Courier New;" parent="2W-PBRkv51gdTkOP3Wb2-12" vertex="1">
          <mxGeometry y="70" width="320" height="10" as="geometry" />
        </mxCell>
        <mxCell id="2W-PBRkv51gdTkOP3Wb2-17" value="+ initStorageManager(Void): Void" style="text;strokeColor=none;fillColor=none;align=left;verticalAlign=middle;spacingLeft=4;spacingRight=4;overflow=hidden;rotatable=0;points=[[0,0.5],[1,0.5]];portConstraint=eastwest;whiteSpace=wrap;html=1;fontSize=10;fontFamily=Courier New;" parent="2W-PBRkv51gdTkOP3Wb2-12" vertex="1">
          <mxGeometry y="80" width="320" height="20" as="geometry" />
        </mxCell>
        <mxCell id="2W-PBRkv51gdTkOP3Wb2-16" value="+ createPageFile(Char): RC" style="text;strokeColor=none;fillColor=none;align=left;verticalAlign=middle;spacingLeft=4;spacingRight=4;overflow=hidden;rotatable=0;points=[[0,0.5],[1,0.5]];portConstraint=eastwest;whiteSpace=wrap;html=1;fontSize=10;fontFamily=Courier New;" parent="2W-PBRkv51gdTkOP3Wb2-12" vertex="1">
          <mxGeometry y="100" width="320" height="20" as="geometry" />
        </mxCell>
        <mxCell id="2W-PBRkv51gdTkOP3Wb2-18" value="+ openPageFile(Char, SM_FileHandle): RC" style="text;strokeColor=none;fillColor=none;align=left;verticalAlign=middle;spacingLeft=4;spacingRight=4;overflow=hidden;rotatable=0;points=[[0,0.5],[1,0.5]];portConstraint=eastwest;whiteSpace=wrap;html=1;fontSize=10;fontFamily=Courier New;" parent="2W-PBRkv51gdTkOP3Wb2-12" vertex="1">
          <mxGeometry y="120" width="320" height="20" as="geometry" />
        </mxCell>
        <mxCell id="2W-PBRkv51gdTkOP3Wb2-19" value="+ closePageFile(SM_FileHandle): RC" style="text;strokeColor=none;fillColor=none;align=left;verticalAlign=middle;spacingLeft=4;spacingRight=4;overflow=hidden;rotatable=0;points=[[0,0.5],[1,0.5]];portConstraint=eastwest;whiteSpace=wrap;html=1;fontSize=10;fontFamily=Courier New;" parent="2W-PBRkv51gdTkOP3Wb2-12" vertex="1">
          <mxGeometry y="140" width="320" height="20" as="geometry" />
        </mxCell>
        <mxCell id="2W-PBRkv51gdTkOP3Wb2-20" value="+ destroyPageFile(Char): RC" style="text;strokeColor=none;fillColor=none;align=left;verticalAlign=middle;spacingLeft=4;spacingRight=4;overflow=hidden;rotatable=0;points=[[0,0.5],[1,0.5]];portConstraint=eastwest;whiteSpace=wrap;html=1;fontSize=10;fontFamily=Courier New;" parent="2W-PBRkv51gdTkOP3Wb2-12" vertex="1">
          <mxGeometry y="160" width="320" height="20" as="geometry" />
        </mxCell>
        <mxCell id="2W-PBRkv51gdTkOP3Wb2-22" value="+ readBlock(Int, SM_FileHandle, SM_PageHandle): RC" style="text;strokeColor=none;fillColor=none;align=left;verticalAlign=middle;spacingLeft=4;spacingRight=4;overflow=hidden;rotatable=0;points=[[0,0.5],[1,0.5]];portConstraint=eastwest;whiteSpace=wrap;html=1;fontSize=10;fontFamily=Courier New;" parent="2W-PBRkv51gdTkOP3Wb2-12" vertex="1">
          <mxGeometry y="180" width="320" height="20" as="geometry" />
        </mxCell>
        <mxCell id="2W-PBRkv51gdTkOP3Wb2-21" value="+ getBlockPos(SM_FileHandle): int" style="text;strokeColor=none;fillColor=none;align=left;verticalAlign=middle;spacingLeft=4;spacingRight=4;overflow=hidden;rotatable=0;points=[[0,0.5],[1,0.5]];portConstraint=eastwest;whiteSpace=wrap;html=1;fontSize=10;fontFamily=Courier New;" parent="2W-PBRkv51gdTkOP3Wb2-12" vertex="1">
          <mxGeometry y="200" width="320" height="20" as="geometry" />
        </mxCell>
        <mxCell id="2W-PBRkv51gdTkOP3Wb2-23" value="+ readFirstBlock(SM_FileHandle, SM_PageHandle): RC" style="text;strokeColor=none;fillColor=none;align=left;verticalAlign=middle;spacingLeft=4;spacingRight=4;overflow=hidden;rotatable=0;points=[[0,0.5],[1,0.5]];portConstraint=eastwest;whiteSpace=wrap;html=1;fontSize=10;fontFamily=Courier New;" parent="2W-PBRkv51gdTkOP3Wb2-12" vertex="1">
          <mxGeometry y="220" width="320" height="20" as="geometry" />
        </mxCell>
        <mxCell id="2W-PBRkv51gdTkOP3Wb2-41" value="+ readPreviousBlock(&lt;div&gt;&amp;nbsp; &amp;nbsp; SM_FileHandle,&lt;/div&gt;&lt;div&gt;&amp;nbsp; &amp;nbsp; SM_PageHandle): RC&lt;/div&gt;" style="text;strokeColor=none;fillColor=none;align=left;verticalAlign=middle;spacingLeft=4;spacingRight=4;overflow=hidden;rotatable=0;points=[[0,0.5],[1,0.5]];portConstraint=eastwest;whiteSpace=wrap;html=1;fontSize=10;fontFamily=Courier New;" parent="2W-PBRkv51gdTkOP3Wb2-12" vertex="1">
          <mxGeometry y="240" width="320" height="40" as="geometry" />
        </mxCell>
        <mxCell id="2W-PBRkv51gdTkOP3Wb2-42" value="+ readCurrentBlock(&lt;div&gt;&amp;nbsp; &amp;nbsp; SM_FileHandle,&lt;/div&gt;&lt;div&gt;&amp;nbsp; &amp;nbsp; SM_PageHandle): RC&lt;/div&gt;" style="text;strokeColor=none;fillColor=none;align=left;verticalAlign=middle;spacingLeft=4;spacingRight=4;overflow=hidden;rotatable=0;points=[[0,0.5],[1,0.5]];portConstraint=eastwest;whiteSpace=wrap;html=1;fontSize=10;fontFamily=Courier New;" parent="2W-PBRkv51gdTkOP3Wb2-12" vertex="1">
          <mxGeometry y="280" width="320" height="40" as="geometry" />
        </mxCell>
        <mxCell id="2W-PBRkv51gdTkOP3Wb2-43" value="+ readNextBlock(SM_FileHandle, SM_PageHandle): RC" style="text;strokeColor=none;fillColor=none;align=left;verticalAlign=middle;spacingLeft=4;spacingRight=4;overflow=hidden;rotatable=0;points=[[0,0.5],[1,0.5]];portConstraint=eastwest;whiteSpace=wrap;html=1;fontSize=10;fontFamily=Courier New;" parent="2W-PBRkv51gdTkOP3Wb2-12" vertex="1">
          <mxGeometry y="320" width="320" height="20" as="geometry" />
        </mxCell>
        <mxCell id="2W-PBRkv51gdTkOP3Wb2-60" value="+ readLastBlock(SM_FileHandle, SM_PageHandle): RC" style="text;strokeColor=none;fillColor=none;align=left;verticalAlign=middle;spacingLeft=4;spacingRight=4;overflow=hidden;rotatable=0;points=[[0,0.5],[1,0.5]];portConstraint=eastwest;whiteSpace=wrap;html=1;fontSize=10;fontFamily=Courier New;" parent="2W-PBRkv51gdTkOP3Wb2-12" vertex="1">
          <mxGeometry y="340" width="320" height="20" as="geometry" />
        </mxCell>
        <mxCell id="2W-PBRkv51gdTkOP3Wb2-61" value="+ writeBlock(int, SM_FileHandle, SM_PageHandle): RC" style="text;strokeColor=none;fillColor=none;align=left;verticalAlign=middle;spacingLeft=4;spacingRight=4;overflow=hidden;rotatable=0;points=[[0,0.5],[1,0.5]];portConstraint=eastwest;whiteSpace=wrap;html=1;fontSize=10;fontFamily=Courier New;" parent="2W-PBRkv51gdTkOP3Wb2-12" vertex="1">
          <mxGeometry y="360" width="320" height="20" as="geometry" />
        </mxCell>
        <mxCell id="2W-PBRkv51gdTkOP3Wb2-59" value="+ writeCurrentBlock(&lt;div&gt;&amp;nbsp; &amp;nbsp; SM_FileHandle,&lt;/div&gt;&lt;div&gt;&amp;nbsp; &amp;nbsp; SM_PageHandle): RC&lt;/div&gt;" style="text;strokeColor=none;fillColor=none;align=left;verticalAlign=middle;spacingLeft=4;spacingRight=4;overflow=hidden;rotatable=0;points=[[0,0.5],[1,0.5]];portConstraint=eastwest;whiteSpace=wrap;html=1;fontSize=10;fontFamily=Courier New;" parent="2W-PBRkv51gdTkOP3Wb2-12" vertex="1">
          <mxGeometry y="380" width="320" height="40" as="geometry" />
        </mxCell>
        <mxCell id="2W-PBRkv51gdTkOP3Wb2-62" value="+ appendEmptyBlock(SM_FileHandle): RC" style="text;strokeColor=none;fillColor=none;align=left;verticalAlign=middle;spacingLeft=4;spacingRight=4;overflow=hidden;rotatable=0;points=[[0,0.5],[1,0.5]];portConstraint=eastwest;whiteSpace=wrap;html=1;fontSize=10;fontFamily=Courier New;" parent="2W-PBRkv51gdTkOP3Wb2-12" vertex="1">
          <mxGeometry y="420" width="320" height="20" as="geometry" />
        </mxCell>
        <mxCell id="2W-PBRkv51gdTkOP3Wb2-63" value="+ ensureCapacity(Int, SM_FileHandle): RC" style="text;strokeColor=none;fillColor=none;align=left;verticalAlign=middle;spacingLeft=4;spacingRight=4;overflow=hidden;rotatable=0;points=[[0,0.5],[1,0.5]];portConstraint=eastwest;whiteSpace=wrap;html=1;fontSize=10;fontFamily=Courier New;" parent="2W-PBRkv51gdTkOP3Wb2-12" vertex="1">
          <mxGeometry y="440" width="320" height="20" as="geometry" />
        </mxCell>
        <mxCell id="2W-PBRkv51gdTkOP3Wb2-27" value="dberror" style="swimlane;fontStyle=1;align=center;verticalAlign=top;childLayout=stackLayout;horizontal=1;startSize=30;horizontalStack=0;resizeParent=1;resizeParentMax=0;resizeLast=0;collapsible=0;marginBottom=0;whiteSpace=wrap;html=1;fontSize=10;fontFamily=Courier New;" parent="1" vertex="1">
          <mxGeometry x="120" y="580" width="320" height="130" as="geometry" />
        </mxCell>
        <mxCell id="2W-PBRkv51gdTkOP3Wb2-28" value="* RC: Int" style="text;strokeColor=none;fillColor=none;align=left;verticalAlign=middle;spacingLeft=4;spacingRight=4;overflow=hidden;rotatable=0;points=[[0,0.5],[1,0.5]];portConstraint=eastwest;whiteSpace=wrap;html=1;fontSize=10;fontFamily=Courier New;" parent="2W-PBRkv51gdTkOP3Wb2-27" vertex="1">
          <mxGeometry y="30" width="320" height="20" as="geometry" />
        </mxCell>
        <mxCell id="2W-PBRkv51gdTkOP3Wb2-30" value="" style="line;strokeWidth=1;fillColor=none;align=left;verticalAlign=middle;spacingTop=0;spacingLeft=0;spacingRight=0;rotatable=0;labelPosition=right;points=[];portConstraint=eastwest;strokeColor=inherit;spacing=0;fontSize=10;fontFamily=Courier New;" parent="2W-PBRkv51gdTkOP3Wb2-27" vertex="1">
          <mxGeometry y="50" width="320" height="10" as="geometry" />
        </mxCell>
        <mxCell id="2W-PBRkv51gdTkOP3Wb2-31" value="- RC_message: Char" style="text;strokeColor=none;fillColor=none;align=left;verticalAlign=middle;spacingLeft=4;spacingRight=4;overflow=hidden;rotatable=0;points=[[0,0.5],[1,0.5]];portConstraint=eastwest;whiteSpace=wrap;html=1;fontSize=10;fontFamily=Courier New;" parent="2W-PBRkv51gdTkOP3Wb2-27" vertex="1">
          <mxGeometry y="60" width="320" height="20" as="geometry" />
        </mxCell>
        <mxCell id="2W-PBRkv51gdTkOP3Wb2-32" value="" style="line;strokeWidth=1;fillColor=none;align=left;verticalAlign=middle;spacingTop=0;spacingLeft=0;spacingRight=0;rotatable=0;labelPosition=right;points=[];portConstraint=eastwest;strokeColor=inherit;spacing=0;fontSize=10;fontFamily=Courier New;" parent="2W-PBRkv51gdTkOP3Wb2-27" vertex="1">
          <mxGeometry y="80" width="320" height="10" as="geometry" />
        </mxCell>
        <mxCell id="2W-PBRkv51gdTkOP3Wb2-33" value="+ printError(RC): Void" style="text;strokeColor=none;fillColor=none;align=left;verticalAlign=middle;spacingLeft=4;spacingRight=4;overflow=hidden;rotatable=0;points=[[0,0.5],[1,0.5]];portConstraint=eastwest;whiteSpace=wrap;html=1;fontSize=10;fontFamily=Courier New;" parent="2W-PBRkv51gdTkOP3Wb2-27" vertex="1">
          <mxGeometry y="90" width="320" height="20" as="geometry" />
        </mxCell>
        <mxCell id="2W-PBRkv51gdTkOP3Wb2-34" value="+ errorMessage(RC): Char" style="text;strokeColor=none;fillColor=none;align=left;verticalAlign=middle;spacingLeft=4;spacingRight=4;overflow=hidden;rotatable=0;points=[[0,0.5],[1,0.5]];portConstraint=eastwest;whiteSpace=wrap;html=1;fontSize=10;fontFamily=Courier New;" parent="2W-PBRkv51gdTkOP3Wb2-27" vertex="1">
          <mxGeometry y="110" width="320" height="20" as="geometry" />
        </mxCell>
        <mxCell id="2W-PBRkv51gdTkOP3Wb2-64" value="test_assign2_1" style="swimlane;fontStyle=1;align=center;verticalAlign=top;childLayout=stackLayout;horizontal=1;startSize=30;horizontalStack=0;resizeParent=1;resizeParentMax=0;resizeLast=0;collapsible=0;marginBottom=0;whiteSpace=wrap;html=1;fontSize=14;fontFamily=Courier New;" parent="1" vertex="1">
          <mxGeometry x="920" y="39" width="240" height="250" as="geometry" />
        </mxCell>
        <mxCell id="2W-PBRkv51gdTkOP3Wb2-67" value="- testName: Char" style="text;strokeColor=none;fillColor=none;align=left;verticalAlign=middle;spacingLeft=4;spacingRight=4;overflow=hidden;rotatable=0;points=[[0,0.5],[1,0.5]];portConstraint=eastwest;whiteSpace=wrap;html=1;fontSize=10;fontFamily=Courier New;" parent="2W-PBRkv51gdTkOP3Wb2-64" vertex="1">
          <mxGeometry y="30" width="240" height="20" as="geometry" />
        </mxCell>
        <mxCell id="2W-PBRkv51gdTkOP3Wb2-68" value="" style="line;strokeWidth=1;fillColor=none;align=left;verticalAlign=middle;spacingTop=0;spacingLeft=0;spacingRight=0;rotatable=0;labelPosition=right;points=[];portConstraint=eastwest;strokeColor=inherit;spacing=0;fontSize=10;fontFamily=Courier New;" parent="2W-PBRkv51gdTkOP3Wb2-64" vertex="1">
          <mxGeometry y="50" width="240" height="10" as="geometry" />
        </mxCell>
        <mxCell id="2W-PBRkv51gdTkOP3Wb2-79" style="edgeStyle=orthogonalEdgeStyle;rounded=0;orthogonalLoop=1;jettySize=auto;html=1;exitX=1;exitY=0.5;exitDx=0;exitDy=0;entryX=1;entryY=0.5;entryDx=0;entryDy=0;" parent="2W-PBRkv51gdTkOP3Wb2-64" source="2W-PBRkv51gdTkOP3Wb2-69" target="2W-PBRkv51gdTkOP3Wb2-71" edge="1">
          <mxGeometry relative="1" as="geometry" />
        </mxCell>
        <mxCell id="Ri6osJwRoKcSnOSPko2Z-16" style="edgeStyle=orthogonalEdgeStyle;rounded=0;orthogonalLoop=1;jettySize=auto;html=1;exitX=1;exitY=0.5;exitDx=0;exitDy=0;entryX=1;entryY=0.5;entryDx=0;entryDy=0;" parent="2W-PBRkv51gdTkOP3Wb2-64" source="2W-PBRkv51gdTkOP3Wb2-69" target="2W-PBRkv51gdTkOP3Wb2-70" edge="1">
          <mxGeometry relative="1" as="geometry">
            <Array as="points">
              <mxPoint x="260" y="70" />
              <mxPoint x="260" y="95" />
            </Array>
          </mxGeometry>
        </mxCell>
        <mxCell id="LyubAiNVPV_jIJJPJGrE-27" style="edgeStyle=orthogonalEdgeStyle;rounded=0;orthogonalLoop=1;jettySize=auto;html=1;exitX=1;exitY=0.5;exitDx=0;exitDy=0;entryX=1;entryY=0.5;entryDx=0;entryDy=0;" parent="2W-PBRkv51gdTkOP3Wb2-64" source="2W-PBRkv51gdTkOP3Wb2-69" target="LyubAiNVPV_jIJJPJGrE-25" edge="1">
          <mxGeometry relative="1" as="geometry" />
        </mxCell>
        <mxCell id="LyubAiNVPV_jIJJPJGrE-28" style="edgeStyle=orthogonalEdgeStyle;rounded=0;orthogonalLoop=1;jettySize=auto;html=1;exitX=1;exitY=0.5;exitDx=0;exitDy=0;entryX=1;entryY=0.5;entryDx=0;entryDy=0;" parent="2W-PBRkv51gdTkOP3Wb2-64" source="2W-PBRkv51gdTkOP3Wb2-69" target="LyubAiNVPV_jIJJPJGrE-26" edge="1">
          <mxGeometry relative="1" as="geometry" />
        </mxCell>
        <mxCell id="2W-PBRkv51gdTkOP3Wb2-69" value="+ main(Void): Int" style="text;strokeColor=none;fillColor=none;align=left;verticalAlign=middle;spacingLeft=4;spacingRight=4;overflow=hidden;rotatable=0;points=[[0,0.5],[1,0.5]];portConstraint=eastwest;whiteSpace=wrap;html=1;fontSize=10;fontStyle=1;fontFamily=Courier New;" parent="2W-PBRkv51gdTkOP3Wb2-64" vertex="1">
          <mxGeometry y="60" width="240" height="20" as="geometry" />
        </mxCell>
        <mxCell id="2W-PBRkv51gdTkOP3Wb2-70" value="+ testCreatingAndReadingDummyPages(&lt;div&gt;&amp;nbsp; &amp;nbsp; Void): Void&lt;/div&gt;" style="text;strokeColor=none;fillColor=none;align=left;verticalAlign=middle;spacingLeft=4;spacingRight=4;overflow=hidden;rotatable=0;points=[[0,0.5],[1,0.5]];portConstraint=eastwest;whiteSpace=wrap;html=1;fontSize=10;fontFamily=Courier New;" parent="2W-PBRkv51gdTkOP3Wb2-64" vertex="1">
          <mxGeometry y="80" width="240" height="30" as="geometry" />
        </mxCell>
        <mxCell id="LyubAiNVPV_jIJJPJGrE-25" value="+ testReadPage(Void): Void" style="text;strokeColor=none;fillColor=none;align=left;verticalAlign=middle;spacingLeft=4;spacingRight=4;overflow=hidden;rotatable=0;points=[[0,0.5],[1,0.5]];portConstraint=eastwest;whiteSpace=wrap;html=1;fontSize=10;fontFamily=Courier New;" parent="2W-PBRkv51gdTkOP3Wb2-64" vertex="1">
          <mxGeometry y="110" width="240" height="20" as="geometry" />
        </mxCell>
        <mxCell id="2W-PBRkv51gdTkOP3Wb2-71" value="+ testFIFO(Void): Void" style="text;strokeColor=none;fillColor=none;align=left;verticalAlign=middle;spacingLeft=4;spacingRight=4;overflow=hidden;rotatable=0;points=[[0,0.5],[1,0.5]];portConstraint=eastwest;whiteSpace=wrap;html=1;fontSize=10;fontFamily=Courier New;" parent="2W-PBRkv51gdTkOP3Wb2-64" vertex="1">
          <mxGeometry y="130" width="240" height="20" as="geometry" />
        </mxCell>
        <mxCell id="LyubAiNVPV_jIJJPJGrE-26" value="+ testLRU(Void): Void" style="text;strokeColor=none;fillColor=none;align=left;verticalAlign=middle;spacingLeft=4;spacingRight=4;overflow=hidden;rotatable=0;points=[[0,0.5],[1,0.5]];portConstraint=eastwest;whiteSpace=wrap;html=1;fontSize=10;fontFamily=Courier New;" parent="2W-PBRkv51gdTkOP3Wb2-64" vertex="1">
          <mxGeometry y="150" width="240" height="20" as="geometry" />
        </mxCell>
        <mxCell id="Ri6osJwRoKcSnOSPko2Z-1" value="+ createDummyPages(&lt;div&gt;&amp;nbsp; &amp;nbsp; BM_BufferPool,&lt;div&gt;&amp;nbsp; &amp;nbsp; Int): Void&lt;/div&gt;&lt;/div&gt;" style="text;strokeColor=none;fillColor=none;align=left;verticalAlign=middle;spacingLeft=4;spacingRight=4;overflow=hidden;rotatable=0;points=[[0,0.5],[1,0.5]];portConstraint=eastwest;whiteSpace=wrap;html=1;fontSize=10;fontFamily=Courier New;" parent="2W-PBRkv51gdTkOP3Wb2-64" vertex="1">
          <mxGeometry y="170" width="240" height="40" as="geometry" />
        </mxCell>
        <mxCell id="6TKqkTE9r3XJfxrBiwmd-1" value="+ checkDummyPages(&lt;div&gt;&amp;nbsp; &amp;nbsp; BM_BufferPool,&lt;/div&gt;&lt;div&gt;&amp;nbsp; &amp;nbsp; Int): Void&lt;/div&gt;" style="text;strokeColor=none;fillColor=none;align=left;verticalAlign=middle;spacingLeft=4;spacingRight=4;overflow=hidden;rotatable=0;points=[[0,0.5],[1,0.5]];portConstraint=eastwest;whiteSpace=wrap;html=1;fontSize=10;fontFamily=Courier New;" parent="2W-PBRkv51gdTkOP3Wb2-64" vertex="1">
          <mxGeometry y="210" width="240" height="40" as="geometry" />
        </mxCell>
        <mxCell id="LyubAiNVPV_jIJJPJGrE-1" value="buffer_mgr" style="swimlane;fontStyle=1;align=center;verticalAlign=top;childLayout=stackLayout;horizontal=1;startSize=30;horizontalStack=0;resizeParent=1;resizeParentMax=0;resizeLast=0;collapsible=0;marginBottom=0;whiteSpace=wrap;html=1;fontSize=14;fontFamily=Courier New;" parent="1" vertex="1">
          <mxGeometry x="520" y="39" width="320" height="480" as="geometry" />
        </mxCell>
        <mxCell id="LyubAiNVPV_jIJJPJGrE-22" value="* ReplacementStrategy: Enum" style="text;strokeColor=none;fillColor=none;align=left;verticalAlign=middle;spacingLeft=4;spacingRight=4;overflow=hidden;rotatable=0;points=[[0,0.5],[1,0.5]];portConstraint=eastwest;whiteSpace=wrap;html=1;fontSize=10;fontFamily=Courier New;" parent="LyubAiNVPV_jIJJPJGrE-1" vertex="1">
          <mxGeometry y="30" width="320" height="20" as="geometry" />
        </mxCell>
        <mxCell id="LyubAiNVPV_jIJJPJGrE-21" value="* PageNumber: Int" style="text;strokeColor=none;fillColor=none;align=left;verticalAlign=middle;spacingLeft=4;spacingRight=4;overflow=hidden;rotatable=0;points=[[0,0.5],[1,0.5]];portConstraint=eastwest;whiteSpace=wrap;html=1;fontSize=10;fontFamily=Courier New;" parent="LyubAiNVPV_jIJJPJGrE-1" vertex="1">
          <mxGeometry y="50" width="320" height="20" as="geometry" />
        </mxCell>
        <mxCell id="LyubAiNVPV_jIJJPJGrE-2" value="*&amp;nbsp;BM_BufferPool&lt;span style=&quot;background-color: initial; font-size: 10px;&quot;&gt;: { Char, Int, ReplacementStrategy,&lt;/span&gt;&lt;div&gt;&lt;span style=&quot;background-color: initial; font-size: 10px;&quot;&gt;&amp;nbsp; &amp;nbsp; Void }&lt;/span&gt;&lt;/div&gt;" style="text;strokeColor=none;fillColor=none;align=left;verticalAlign=middle;spacingLeft=4;spacingRight=4;overflow=hidden;rotatable=0;points=[[0,0.5],[1,0.5]];portConstraint=eastwest;whiteSpace=wrap;html=1;fontSize=10;fontFamily=Courier New;" parent="LyubAiNVPV_jIJJPJGrE-1" vertex="1">
          <mxGeometry y="70" width="320" height="30" as="geometry" />
        </mxCell>
        <mxCell id="LyubAiNVPV_jIJJPJGrE-3" value="* BM_PageHandle: { PageNumber, Char }" style="text;strokeColor=none;fillColor=none;align=left;verticalAlign=middle;spacingLeft=4;spacingRight=4;overflow=hidden;rotatable=0;points=[[0,0.5],[1,0.5]];portConstraint=eastwest;whiteSpace=wrap;html=1;fontSize=10;fontFamily=Courier New;" parent="LyubAiNVPV_jIJJPJGrE-1" vertex="1">
          <mxGeometry y="100" width="320" height="20" as="geometry" />
        </mxCell>
        <mxCell id="LyubAiNVPV_jIJJPJGrE-23" value="* Frame: { PageNumber, Int, Int, Char, Frame,&lt;div&gt;&amp;nbsp; &amp;nbsp; Frame }&lt;/div&gt;" style="text;strokeColor=none;fillColor=none;align=left;verticalAlign=middle;spacingLeft=4;spacingRight=4;overflow=hidden;rotatable=0;points=[[0,0.5],[1,0.5]];portConstraint=eastwest;whiteSpace=wrap;html=1;fontSize=10;fontFamily=Courier New;" parent="LyubAiNVPV_jIJJPJGrE-1" vertex="1">
          <mxGeometry y="120" width="320" height="30" as="geometry" />
        </mxCell>
        <mxCell id="LyubAiNVPV_jIJJPJGrE-24" value="* PageCache: { Int, Int, Frame, Frame, Int, Int }" style="text;strokeColor=none;fillColor=none;align=left;verticalAlign=middle;spacingLeft=4;spacingRight=4;overflow=hidden;rotatable=0;points=[[0,0.5],[1,0.5]];portConstraint=eastwest;whiteSpace=wrap;html=1;fontSize=10;fontFamily=Courier New;" parent="LyubAiNVPV_jIJJPJGrE-1" vertex="1">
          <mxGeometry y="150" width="320" height="20" as="geometry" />
        </mxCell>
        <mxCell id="LyubAiNVPV_jIJJPJGrE-4" value="" style="line;strokeWidth=1;fillColor=none;align=left;verticalAlign=middle;spacingTop=0;spacingLeft=0;spacingRight=0;rotatable=0;labelPosition=right;points=[];portConstraint=eastwest;strokeColor=inherit;spacing=0;fontSize=10;fontFamily=Courier New;" parent="LyubAiNVPV_jIJJPJGrE-1" vertex="1">
          <mxGeometry y="170" width="320" height="10" as="geometry" />
        </mxCell>
        <mxCell id="LyubAiNVPV_jIJJPJGrE-5" value="+&amp;nbsp;initBufferPool&lt;span style=&quot;background-color: initial; font-size: 10px;&quot;&gt;(&lt;/span&gt;&lt;div&gt;&lt;span style=&quot;background-color: initial; font-size: 10px;&quot;&gt;&amp;nbsp; &amp;nbsp; BM_BufferPool,&amp;nbsp;&lt;/span&gt;&lt;/div&gt;&lt;div&gt;&lt;span style=&quot;background-color: initial; font-size: 10px;&quot;&gt;&amp;nbsp; &amp;nbsp; Char,&amp;nbsp;&lt;/span&gt;&lt;/div&gt;&lt;div&gt;&lt;span style=&quot;background-color: initial; font-size: 10px;&quot;&gt;&amp;nbsp; &amp;nbsp; Int,&lt;/span&gt;&lt;/div&gt;&lt;div&gt;&lt;span style=&quot;background-color: initial; font-size: 10px;&quot;&gt;&amp;nbsp; &amp;nbsp; ReplacementStrategy,&lt;/span&gt;&lt;/div&gt;&lt;div&gt;&lt;span style=&quot;background-color: initial; font-size: 10px;&quot;&gt;&amp;nbsp; &amp;nbsp; Void): RC&lt;/span&gt;&lt;/div&gt;" style="text;strokeColor=none;fillColor=none;align=left;verticalAlign=middle;spacingLeft=4;spacingRight=4;overflow=hidden;rotatable=0;points=[[0,0.5],[1,0.5]];portConstraint=eastwest;whiteSpace=wrap;html=1;fontSize=10;fontFamily=Courier New;" parent="LyubAiNVPV_jIJJPJGrE-1" vertex="1">
          <mxGeometry y="180" width="320" height="80" as="geometry" />
        </mxCell>
        <mxCell id="LyubAiNVPV_jIJJPJGrE-6" value="+ shutdownBufferPool(BM_BufferPool): RC" style="text;strokeColor=none;fillColor=none;align=left;verticalAlign=middle;spacingLeft=4;spacingRight=4;overflow=hidden;rotatable=0;points=[[0,0.5],[1,0.5]];portConstraint=eastwest;whiteSpace=wrap;html=1;fontSize=10;fontFamily=Courier New;" parent="LyubAiNVPV_jIJJPJGrE-1" vertex="1">
          <mxGeometry y="260" width="320" height="20" as="geometry" />
        </mxCell>
        <mxCell id="LyubAiNVPV_jIJJPJGrE-7" value="+ forceFlushPool(BM_BufferPool): RC" style="text;strokeColor=none;fillColor=none;align=left;verticalAlign=middle;spacingLeft=4;spacingRight=4;overflow=hidden;rotatable=0;points=[[0,0.5],[1,0.5]];portConstraint=eastwest;whiteSpace=wrap;html=1;fontSize=10;fontFamily=Courier New;" parent="LyubAiNVPV_jIJJPJGrE-1" vertex="1">
          <mxGeometry y="280" width="320" height="20" as="geometry" />
        </mxCell>
        <mxCell id="LyubAiNVPV_jIJJPJGrE-8" value="+ markDirty(BM_BufferPool, BM_PageHandle): RC" style="text;strokeColor=none;fillColor=none;align=left;verticalAlign=middle;spacingLeft=4;spacingRight=4;overflow=hidden;rotatable=0;points=[[0,0.5],[1,0.5]];portConstraint=eastwest;whiteSpace=wrap;html=1;fontSize=10;fontFamily=Courier New;" parent="LyubAiNVPV_jIJJPJGrE-1" vertex="1">
          <mxGeometry y="300" width="320" height="20" as="geometry" />
        </mxCell>
        <mxCell id="LyubAiNVPV_jIJJPJGrE-9" value="+ unpinPage(BM_BufferPool, BM_PageHandle): RC" style="text;strokeColor=none;fillColor=none;align=left;verticalAlign=middle;spacingLeft=4;spacingRight=4;overflow=hidden;rotatable=0;points=[[0,0.5],[1,0.5]];portConstraint=eastwest;whiteSpace=wrap;html=1;fontSize=10;fontFamily=Courier New;" parent="LyubAiNVPV_jIJJPJGrE-1" vertex="1">
          <mxGeometry y="320" width="320" height="20" as="geometry" />
        </mxCell>
        <mxCell id="LyubAiNVPV_jIJJPJGrE-10" value="+ forcePage(BM_BufferPool, BM_PageHandle): RC" style="text;strokeColor=none;fillColor=none;align=left;verticalAlign=middle;spacingLeft=4;spacingRight=4;overflow=hidden;rotatable=0;points=[[0,0.5],[1,0.5]];portConstraint=eastwest;whiteSpace=wrap;html=1;fontSize=10;fontFamily=Courier New;" parent="LyubAiNVPV_jIJJPJGrE-1" vertex="1">
          <mxGeometry y="340" width="320" height="20" as="geometry" />
        </mxCell>
        <mxCell id="LyubAiNVPV_jIJJPJGrE-11" value="+ pinPage(BM_BufferPool, BM_PageHandle): RC" style="text;strokeColor=none;fillColor=none;align=left;verticalAlign=middle;spacingLeft=4;spacingRight=4;overflow=hidden;rotatable=0;points=[[0,0.5],[1,0.5]];portConstraint=eastwest;whiteSpace=wrap;html=1;fontSize=10;fontFamily=Courier New;" parent="LyubAiNVPV_jIJJPJGrE-1" vertex="1">
          <mxGeometry y="360" width="320" height="20" as="geometry" />
        </mxCell>
        <mxCell id="LyubAiNVPV_jIJJPJGrE-12" value="+ getFrameContents(BM_BufferPool): PageNumber" style="text;strokeColor=none;fillColor=none;align=left;verticalAlign=middle;spacingLeft=4;spacingRight=4;overflow=hidden;rotatable=0;points=[[0,0.5],[1,0.5]];portConstraint=eastwest;whiteSpace=wrap;html=1;fontSize=10;fontFamily=Courier New;" parent="LyubAiNVPV_jIJJPJGrE-1" vertex="1">
          <mxGeometry y="380" width="320" height="20" as="geometry" />
        </mxCell>
        <mxCell id="LyubAiNVPV_jIJJPJGrE-13" value="+ getDirtyFlags(BM_BufferPool): Int" style="text;strokeColor=none;fillColor=none;align=left;verticalAlign=middle;spacingLeft=4;spacingRight=4;overflow=hidden;rotatable=0;points=[[0,0.5],[1,0.5]];portConstraint=eastwest;whiteSpace=wrap;html=1;fontSize=10;fontFamily=Courier New;" parent="LyubAiNVPV_jIJJPJGrE-1" vertex="1">
          <mxGeometry y="400" width="320" height="20" as="geometry" />
        </mxCell>
        <mxCell id="LyubAiNVPV_jIJJPJGrE-14" value="+ getFixCounts(BM_BufferPool): Int" style="text;strokeColor=none;fillColor=none;align=left;verticalAlign=middle;spacingLeft=4;spacingRight=4;overflow=hidden;rotatable=0;points=[[0,0.5],[1,0.5]];portConstraint=eastwest;whiteSpace=wrap;html=1;fontSize=10;fontFamily=Courier New;" parent="LyubAiNVPV_jIJJPJGrE-1" vertex="1">
          <mxGeometry y="420" width="320" height="20" as="geometry" />
        </mxCell>
        <mxCell id="LyubAiNVPV_jIJJPJGrE-15" value="+ getNumReadIO(BM_BufferPool): Int" style="text;strokeColor=none;fillColor=none;align=left;verticalAlign=middle;spacingLeft=4;spacingRight=4;overflow=hidden;rotatable=0;points=[[0,0.5],[1,0.5]];portConstraint=eastwest;whiteSpace=wrap;html=1;fontSize=10;fontFamily=Courier New;" parent="LyubAiNVPV_jIJJPJGrE-1" vertex="1">
          <mxGeometry y="440" width="320" height="20" as="geometry" />
        </mxCell>
        <mxCell id="LyubAiNVPV_jIJJPJGrE-16" value="+ getNumWriteIO(BM_BufferPool): Int" style="text;strokeColor=none;fillColor=none;align=left;verticalAlign=middle;spacingLeft=4;spacingRight=4;overflow=hidden;rotatable=0;points=[[0,0.5],[1,0.5]];portConstraint=eastwest;whiteSpace=wrap;html=1;fontSize=10;fontFamily=Courier New;" parent="LyubAiNVPV_jIJJPJGrE-1" vertex="1">
          <mxGeometry y="460" width="320" height="20" as="geometry" />
        </mxCell>
        <mxCell id="LyubAiNVPV_jIJJPJGrE-29" value="test_assign2_2" style="swimlane;fontStyle=1;align=center;verticalAlign=top;childLayout=stackLayout;horizontal=1;startSize=30;horizontalStack=0;resizeParent=1;resizeParentMax=0;resizeLast=0;collapsible=0;marginBottom=0;whiteSpace=wrap;html=1;fontSize=10;fontFamily=Courier New;" parent="1" vertex="1">
          <mxGeometry x="920" y="370" width="240" height="160" as="geometry" />
        </mxCell>
        <mxCell id="LyubAiNVPV_jIJJPJGrE-30" value="- testName: Char" style="text;strokeColor=none;fillColor=none;align=left;verticalAlign=middle;spacingLeft=4;spacingRight=4;overflow=hidden;rotatable=0;points=[[0,0.5],[1,0.5]];portConstraint=eastwest;whiteSpace=wrap;html=1;fontSize=10;fontFamily=Courier New;" parent="LyubAiNVPV_jIJJPJGrE-29" vertex="1">
          <mxGeometry y="30" width="240" height="20" as="geometry" />
        </mxCell>
        <mxCell id="LyubAiNVPV_jIJJPJGrE-31" value="" style="line;strokeWidth=1;fillColor=none;align=left;verticalAlign=middle;spacingTop=0;spacingLeft=0;spacingRight=0;rotatable=0;labelPosition=right;points=[];portConstraint=eastwest;strokeColor=inherit;spacing=0;fontSize=10;fontFamily=Courier New;" parent="LyubAiNVPV_jIJJPJGrE-29" vertex="1">
          <mxGeometry y="50" width="240" height="10" as="geometry" />
        </mxCell>
        <mxCell id="LyubAiNVPV_jIJJPJGrE-48" style="edgeStyle=orthogonalEdgeStyle;rounded=0;orthogonalLoop=1;jettySize=auto;html=1;exitX=1;exitY=0.5;exitDx=0;exitDy=0;entryX=1;entryY=0.5;entryDx=0;entryDy=0;" parent="LyubAiNVPV_jIJJPJGrE-29" source="LyubAiNVPV_jIJJPJGrE-38" target="LyubAiNVPV_jIJJPJGrE-41" edge="1">
          <mxGeometry relative="1" as="geometry">
            <Array as="points">
              <mxPoint x="260" y="70" />
              <mxPoint x="260" y="90" />
            </Array>
          </mxGeometry>
        </mxCell>
        <mxCell id="LyubAiNVPV_jIJJPJGrE-49" style="edgeStyle=orthogonalEdgeStyle;rounded=0;orthogonalLoop=1;jettySize=auto;html=1;exitX=1;exitY=0.5;exitDx=0;exitDy=0;entryX=1;entryY=0.5;entryDx=0;entryDy=0;" parent="LyubAiNVPV_jIJJPJGrE-29" source="LyubAiNVPV_jIJJPJGrE-38" target="LyubAiNVPV_jIJJPJGrE-44" edge="1">
          <mxGeometry relative="1" as="geometry" />
        </mxCell>
        <mxCell id="LyubAiNVPV_jIJJPJGrE-38" value="+ main(Void): Int" style="text;strokeColor=none;fillColor=none;align=left;verticalAlign=middle;spacingLeft=4;spacingRight=4;overflow=hidden;rotatable=0;points=[[0,0.5],[1,0.5]];portConstraint=eastwest;whiteSpace=wrap;html=1;fontSize=10;fontStyle=1;fontFamily=Courier New;" parent="LyubAiNVPV_jIJJPJGrE-29" vertex="1">
          <mxGeometry y="60" width="240" height="20" as="geometry" />
        </mxCell>
        <mxCell id="LyubAiNVPV_jIJJPJGrE-41" value="+ testLRU_K(Void): Void" style="text;strokeColor=none;fillColor=none;align=left;verticalAlign=middle;spacingLeft=4;spacingRight=4;overflow=hidden;rotatable=0;points=[[0,0.5],[1,0.5]];portConstraint=eastwest;whiteSpace=wrap;html=1;fontSize=10;fontFamily=Courier New;" parent="LyubAiNVPV_jIJJPJGrE-29" vertex="1">
          <mxGeometry y="80" width="240" height="20" as="geometry" />
        </mxCell>
        <mxCell id="LyubAiNVPV_jIJJPJGrE-44" value="+ testError(Void): Void" style="text;strokeColor=none;fillColor=none;align=left;verticalAlign=middle;spacingLeft=4;spacingRight=4;overflow=hidden;rotatable=0;points=[[0,0.5],[1,0.5]];portConstraint=eastwest;whiteSpace=wrap;html=1;fontSize=10;fontFamily=Courier New;" parent="LyubAiNVPV_jIJJPJGrE-29" vertex="1">
          <mxGeometry y="100" width="240" height="20" as="geometry" />
        </mxCell>
        <mxCell id="LyubAiNVPV_jIJJPJGrE-40" value="+ createDummyPages(&lt;div&gt;&amp;nbsp; &amp;nbsp; BM_BufferPool,&lt;/div&gt;&lt;div&gt;&amp;nbsp; &amp;nbsp; Int): Void&lt;/div&gt;" style="text;strokeColor=none;fillColor=none;align=left;verticalAlign=middle;spacingLeft=4;spacingRight=4;overflow=hidden;rotatable=0;points=[[0,0.5],[1,0.5]];portConstraint=eastwest;whiteSpace=wrap;html=1;fontSize=10;fontFamily=Courier New;" parent="LyubAiNVPV_jIJJPJGrE-29" vertex="1">
          <mxGeometry y="120" width="240" height="40" as="geometry" />
        </mxCell>
        <mxCell id="LyubAiNVPV_jIJJPJGrE-50" value="buffer_mgr_stat" style="swimlane;fontStyle=1;align=center;verticalAlign=top;childLayout=stackLayout;horizontal=1;startSize=30;horizontalStack=0;resizeParent=1;resizeParentMax=0;resizeLast=0;collapsible=0;marginBottom=0;whiteSpace=wrap;html=1;fontSize=10;fontFamily=Courier New;" parent="1" vertex="1">
          <mxGeometry x="520" y="600" width="320" height="150" as="geometry" />
        </mxCell>
        <mxCell id="LyubAiNVPV_jIJJPJGrE-58" value="+&amp;nbsp;printStrat&lt;span style=&quot;background-color: initial; font-size: 10px;&quot;&gt;(BM_BufferPool): Void&lt;/span&gt;" style="text;strokeColor=none;fillColor=none;align=left;verticalAlign=middle;spacingLeft=4;spacingRight=4;overflow=hidden;rotatable=0;points=[[0,0.5],[1,0.5]];portConstraint=eastwest;whiteSpace=wrap;html=1;fontSize=10;fontFamily=Courier New;" parent="LyubAiNVPV_jIJJPJGrE-50" vertex="1">
          <mxGeometry y="30" width="320" height="20" as="geometry" />
        </mxCell>
        <mxCell id="LyubAiNVPV_jIJJPJGrE-59" value="+ printPoolContent(BM_BufferPool): Void" style="text;strokeColor=none;fillColor=none;align=left;verticalAlign=middle;spacingLeft=4;spacingRight=4;overflow=hidden;rotatable=0;points=[[0,0.5],[1,0.5]];portConstraint=eastwest;whiteSpace=wrap;html=1;fontSize=10;fontFamily=Courier New;" parent="LyubAiNVPV_jIJJPJGrE-50" vertex="1">
          <mxGeometry y="50" width="320" height="20" as="geometry" />
        </mxCell>
        <mxCell id="LyubAiNVPV_jIJJPJGrE-60" value="+ sprintPoolContent(BM_BufferPool): Char" style="text;strokeColor=none;fillColor=none;align=left;verticalAlign=middle;spacingLeft=4;spacingRight=4;overflow=hidden;rotatable=0;points=[[0,0.5],[1,0.5]];portConstraint=eastwest;whiteSpace=wrap;html=1;fontSize=10;fontFamily=Courier New;" parent="LyubAiNVPV_jIJJPJGrE-50" vertex="1">
          <mxGeometry y="70" width="320" height="20" as="geometry" />
        </mxCell>
        <mxCell id="LyubAiNVPV_jIJJPJGrE-61" value="+&amp;nbsp;printPageContent&lt;span style=&quot;background-color: initial; font-size: 10px;&quot;&gt;(BM_PageHandle): Void&lt;/span&gt;" style="text;strokeColor=none;fillColor=none;align=left;verticalAlign=middle;spacingLeft=4;spacingRight=4;overflow=hidden;rotatable=0;points=[[0,0.5],[1,0.5]];portConstraint=eastwest;whiteSpace=wrap;html=1;fontSize=10;fontFamily=Courier New;" parent="LyubAiNVPV_jIJJPJGrE-50" vertex="1">
          <mxGeometry y="90" width="320" height="20" as="geometry" />
        </mxCell>
        <mxCell id="LyubAiNVPV_jIJJPJGrE-62" value="+ sprintPageContent(BM_PageHandle): Char" style="text;strokeColor=none;fillColor=none;align=left;verticalAlign=middle;spacingLeft=4;spacingRight=4;overflow=hidden;rotatable=0;points=[[0,0.5],[1,0.5]];portConstraint=eastwest;whiteSpace=wrap;html=1;fontSize=10;fontFamily=Courier New;" parent="LyubAiNVPV_jIJJPJGrE-50" vertex="1">
          <mxGeometry y="110" width="320" height="20" as="geometry" />
        </mxCell>
        <mxCell id="LyubAiNVPV_jIJJPJGrE-63" value="+&amp;nbsp;printStrat&lt;span style=&quot;background-color: initial; font-size: 10px;&quot;&gt;(BM_BufferPool): Void&lt;/span&gt;" style="text;strokeColor=none;fillColor=none;align=left;verticalAlign=middle;spacingLeft=4;spacingRight=4;overflow=hidden;rotatable=0;points=[[0,0.5],[1,0.5]];portConstraint=eastwest;whiteSpace=wrap;html=1;fontSize=10;fontFamily=Courier New;" parent="LyubAiNVPV_jIJJPJGrE-50" vertex="1">
          <mxGeometry y="130" width="320" height="20" as="geometry" />
        </mxCell>
        <mxCell id="nGmuMc9Q84ZZob1ObDDD-13" style="edgeStyle=orthogonalEdgeStyle;rounded=0;orthogonalLoop=1;jettySize=auto;html=1;exitX=0;exitY=0.5;exitDx=0;exitDy=0;entryX=1;entryY=0.5;entryDx=0;entryDy=0;" parent="1" source="2W-PBRkv51gdTkOP3Wb2-70" target="LyubAiNVPV_jIJJPJGrE-5" edge="1">
          <mxGeometry relative="1" as="geometry">
            <Array as="points">
              <mxPoint x="920" y="129" />
              <mxPoint x="860" y="129" />
              <mxPoint x="860" y="259" />
            </Array>
          </mxGeometry>
        </mxCell>
        <mxCell id="nGmuMc9Q84ZZob1ObDDD-14" style="edgeStyle=orthogonalEdgeStyle;rounded=0;orthogonalLoop=1;jettySize=auto;html=1;exitX=0;exitY=0.5;exitDx=0;exitDy=0;entryX=1;entryY=0.5;entryDx=0;entryDy=0;" parent="1" source="2W-PBRkv51gdTkOP3Wb2-70" target="LyubAiNVPV_jIJJPJGrE-6" edge="1">
          <mxGeometry relative="1" as="geometry">
            <Array as="points">
              <mxPoint x="920" y="129" />
              <mxPoint x="860" y="129" />
              <mxPoint x="860" y="310" />
              <mxPoint x="840" y="310" />
            </Array>
          </mxGeometry>
        </mxCell>
        <mxCell id="nGmuMc9Q84ZZob1ObDDD-16" style="edgeStyle=orthogonalEdgeStyle;rounded=0;orthogonalLoop=1;jettySize=auto;html=1;exitX=0;exitY=0.5;exitDx=0;exitDy=0;entryX=1;entryY=0.5;entryDx=0;entryDy=0;" parent="1" source="2W-PBRkv51gdTkOP3Wb2-71" target="LyubAiNVPV_jIJJPJGrE-7" edge="1">
          <mxGeometry relative="1" as="geometry">
            <Array as="points">
              <mxPoint x="880" y="180" />
              <mxPoint x="880" y="330" />
              <mxPoint x="840" y="330" />
            </Array>
          </mxGeometry>
        </mxCell>
        <mxCell id="nGmuMc9Q84ZZob1ObDDD-17" style="edgeStyle=orthogonalEdgeStyle;rounded=0;orthogonalLoop=1;jettySize=auto;html=1;exitX=0;exitY=0.5;exitDx=0;exitDy=0;entryX=1;entryY=0.5;entryDx=0;entryDy=0;" parent="1" source="2W-PBRkv51gdTkOP3Wb2-71" target="LyubAiNVPV_jIJJPJGrE-8" edge="1">
          <mxGeometry relative="1" as="geometry">
            <Array as="points">
              <mxPoint x="880" y="180" />
              <mxPoint x="880" y="350" />
              <mxPoint x="840" y="350" />
            </Array>
          </mxGeometry>
        </mxCell>
        <mxCell id="nGmuMc9Q84ZZob1ObDDD-18" style="edgeStyle=orthogonalEdgeStyle;rounded=0;orthogonalLoop=1;jettySize=auto;html=1;exitX=0;exitY=0.5;exitDx=0;exitDy=0;entryX=1;entryY=0.5;entryDx=0;entryDy=0;" parent="1" source="2W-PBRkv51gdTkOP3Wb2-71" target="LyubAiNVPV_jIJJPJGrE-9" edge="1">
          <mxGeometry relative="1" as="geometry">
            <Array as="points">
              <mxPoint x="880" y="180" />
              <mxPoint x="880" y="370" />
              <mxPoint x="840" y="370" />
            </Array>
          </mxGeometry>
        </mxCell>
        <mxCell id="nGmuMc9Q84ZZob1ObDDD-19" style="edgeStyle=orthogonalEdgeStyle;rounded=0;orthogonalLoop=1;jettySize=auto;html=1;exitX=0;exitY=0.5;exitDx=0;exitDy=0;entryX=1;entryY=0.5;entryDx=0;entryDy=0;" parent="1" source="2W-PBRkv51gdTkOP3Wb2-71" target="LyubAiNVPV_jIJJPJGrE-10" edge="1">
          <mxGeometry relative="1" as="geometry">
            <Array as="points">
              <mxPoint x="880" y="180" />
              <mxPoint x="880" y="389" />
            </Array>
          </mxGeometry>
        </mxCell>
        <mxCell id="nGmuMc9Q84ZZob1ObDDD-20" style="edgeStyle=orthogonalEdgeStyle;rounded=0;orthogonalLoop=1;jettySize=auto;html=1;exitX=0;exitY=0.5;exitDx=0;exitDy=0;entryX=1;entryY=0.5;entryDx=0;entryDy=0;" parent="1" source="2W-PBRkv51gdTkOP3Wb2-71" target="LyubAiNVPV_jIJJPJGrE-11" edge="1">
          <mxGeometry relative="1" as="geometry">
            <Array as="points">
              <mxPoint x="920" y="180" />
              <mxPoint x="880" y="180" />
              <mxPoint x="880" y="409" />
            </Array>
          </mxGeometry>
        </mxCell>
        <mxCell id="nGmuMc9Q84ZZob1ObDDD-21" style="edgeStyle=orthogonalEdgeStyle;rounded=0;orthogonalLoop=1;jettySize=auto;html=1;exitX=0;exitY=0.5;exitDx=0;exitDy=0;entryX=1;entryY=0.5;entryDx=0;entryDy=0;" parent="1" source="LyubAiNVPV_jIJJPJGrE-25" target="LyubAiNVPV_jIJJPJGrE-7" edge="1">
          <mxGeometry relative="1" as="geometry">
            <Array as="points">
              <mxPoint x="900" y="159" />
              <mxPoint x="900" y="180" />
              <mxPoint x="880" y="180" />
              <mxPoint x="880" y="330" />
              <mxPoint x="840" y="330" />
            </Array>
          </mxGeometry>
        </mxCell>
        <mxCell id="nGmuMc9Q84ZZob1ObDDD-22" style="edgeStyle=orthogonalEdgeStyle;rounded=0;orthogonalLoop=1;jettySize=auto;html=1;exitX=0;exitY=0.5;exitDx=0;exitDy=0;entryX=1;entryY=0.5;entryDx=0;entryDy=0;" parent="1" source="LyubAiNVPV_jIJJPJGrE-26" target="LyubAiNVPV_jIJJPJGrE-7" edge="1">
          <mxGeometry relative="1" as="geometry">
            <Array as="points">
              <mxPoint x="900" y="199" />
              <mxPoint x="900" y="180" />
              <mxPoint x="880" y="180" />
              <mxPoint x="880" y="330" />
              <mxPoint x="840" y="330" />
            </Array>
          </mxGeometry>
        </mxCell>
        <mxCell id="nGmuMc9Q84ZZob1ObDDD-24" style="edgeStyle=orthogonalEdgeStyle;rounded=0;orthogonalLoop=1;jettySize=auto;html=1;exitX=0;exitY=0.5;exitDx=0;exitDy=0;entryX=1;entryY=0.5;entryDx=0;entryDy=0;" parent="1" source="LyubAiNVPV_jIJJPJGrE-41" target="LyubAiNVPV_jIJJPJGrE-11" edge="1">
          <mxGeometry relative="1" as="geometry">
            <Array as="points">
              <mxPoint x="900" y="460" />
              <mxPoint x="900" y="470" />
              <mxPoint x="880" y="470" />
              <mxPoint x="880" y="409" />
            </Array>
          </mxGeometry>
        </mxCell>
        <mxCell id="nGmuMc9Q84ZZob1ObDDD-25" style="edgeStyle=orthogonalEdgeStyle;rounded=0;orthogonalLoop=1;jettySize=auto;html=1;exitX=0;exitY=0.5;exitDx=0;exitDy=0;entryX=1;entryY=0.5;entryDx=0;entryDy=0;" parent="1" source="LyubAiNVPV_jIJJPJGrE-44" target="LyubAiNVPV_jIJJPJGrE-11" edge="1">
          <mxGeometry relative="1" as="geometry">
            <Array as="points">
              <mxPoint x="900" y="480" />
              <mxPoint x="900" y="470" />
              <mxPoint x="880" y="470" />
              <mxPoint x="880" y="409" />
            </Array>
          </mxGeometry>
        </mxCell>
        <mxCell id="nGmuMc9Q84ZZob1ObDDD-71" style="rounded=0;orthogonalLoop=1;jettySize=auto;html=1;exitX=0;exitY=0.039;exitDx=0;exitDy=0;exitPerimeter=0;entryX=1.002;entryY=0.04;entryDx=0;entryDy=0;entryPerimeter=0;" parent="1" source="LyubAiNVPV_jIJJPJGrE-1" target="2W-PBRkv51gdTkOP3Wb2-12" edge="1">
          <mxGeometry relative="1" as="geometry">
            <mxPoint x="321" y="58" as="sourcePoint" />
            <mxPoint x="380" y="58" as="targetPoint" />
          </mxGeometry>
        </mxCell>
        <mxCell id="nGmuMc9Q84ZZob1ObDDD-72" style="edgeStyle=orthogonalEdgeStyle;rounded=0;orthogonalLoop=1;jettySize=auto;html=1;exitX=0.001;exitY=0.048;exitDx=0;exitDy=0;exitPerimeter=0;entryX=0.999;entryY=0.171;entryDx=0;entryDy=0;entryPerimeter=0;" parent="1" target="2W-PBRkv51gdTkOP3Wb2-27" edge="1">
          <mxGeometry relative="1" as="geometry">
            <mxPoint x="440" y="58" as="sourcePoint" />
            <mxPoint x="420" y="480" as="targetPoint" />
            <Array as="points">
              <mxPoint x="460" y="58" />
              <mxPoint x="460" y="602" />
            </Array>
          </mxGeometry>
        </mxCell>
        <mxCell id="nGmuMc9Q84ZZob1ObDDD-74" style="edgeStyle=orthogonalEdgeStyle;rounded=0;orthogonalLoop=1;jettySize=auto;html=1;exitX=-0.001;exitY=0.051;exitDx=0;exitDy=0;exitPerimeter=0;entryX=0;entryY=0.15;entryDx=0;entryDy=0;entryPerimeter=0;" parent="1" source="2W-PBRkv51gdTkOP3Wb2-12" target="2W-PBRkv51gdTkOP3Wb2-27" edge="1">
          <mxGeometry relative="1" as="geometry">
            <mxPoint y="60" as="sourcePoint" />
            <mxPoint x="-20" y="490" as="targetPoint" />
            <Array as="points">
              <mxPoint x="120" y="59" />
              <mxPoint x="100" y="59" />
              <mxPoint x="100" y="599" />
            </Array>
          </mxGeometry>
        </mxCell>
        <mxCell id="nGmuMc9Q84ZZob1ObDDD-75" style="edgeStyle=orthogonalEdgeStyle;rounded=0;orthogonalLoop=1;jettySize=auto;html=1;exitX=1;exitY=0.5;exitDx=0;exitDy=0;entryX=1;entryY=0.5;entryDx=0;entryDy=0;" parent="1" source="LyubAiNVPV_jIJJPJGrE-13" target="LyubAiNVPV_jIJJPJGrE-59" edge="1">
          <mxGeometry relative="1" as="geometry" />
        </mxCell>
        <mxCell id="nGmuMc9Q84ZZob1ObDDD-76" style="edgeStyle=orthogonalEdgeStyle;rounded=0;orthogonalLoop=1;jettySize=auto;html=1;exitX=1;exitY=0.5;exitDx=0;exitDy=0;entryX=1;entryY=0.5;entryDx=0;entryDy=0;" parent="1" source="LyubAiNVPV_jIJJPJGrE-15" target="LyubAiNVPV_jIJJPJGrE-60" edge="1">
          <mxGeometry relative="1" as="geometry" />
        </mxCell>
        <mxCell id="nGmuMc9Q84ZZob1ObDDD-77" style="edgeStyle=orthogonalEdgeStyle;rounded=0;orthogonalLoop=1;jettySize=auto;html=1;exitX=1;exitY=0.5;exitDx=0;exitDy=0;entryX=1;entryY=0.5;entryDx=0;entryDy=0;" parent="1" source="LyubAiNVPV_jIJJPJGrE-14" target="LyubAiNVPV_jIJJPJGrE-59" edge="1">
          <mxGeometry relative="1" as="geometry" />
        </mxCell>
      </root>
    </mxGraphModel>
  </diagram>
</mxfile>
